<?xml version="1.0" standalone="no"?>
<!DOCTYPE svg PUBLIC "-//W3C//DTD SVG 20010904//EN"
 "http://www.w3.org/TR/2001/REC-SVG-20010904/DTD/svg10.dtd">
<svg version="1.0" xmlns="http://www.w3.org/2000/svg"
 width="512.000000pt" height="512.000000pt" viewBox="0 0 512.000000 512.000000"
 preserveAspectRatio="xMidYMid meet">
<metadata>
Created by potrace 1.14, written by Peter Selinger 2001-2017
</metadata>
<g transform="translate(0.000000,512.000000) scale(0.100000,-0.100000)"
fill="#000000" stroke="none">
<path d="M2606 5104 c-286 -64 -493 -293 -531 -589 -3 -27 -17 -68 -30 -90
-61 -106 -183 -360 -250 -525 -89 -215 -220 -646 -251 -824 -3 -17 -9 -49 -14
-71 -5 -22 -11 -60 -15 -85 -3 -25 -8 -52 -10 -60 -2 -8 -6 -35 -9 -60 -3 -25
-8 -54 -10 -65 -2 -11 -7 -56 -11 -100 -4 -44 -9 -89 -11 -100 -24 -124 -22
-813 3 -1120 9 -116 10 -304 1 -380 -15 -131 -74 -309 -146 -445 -64 -121
-136 -215 -256 -332 -111 -110 -119 -120 -120 -158 0 -31 5 -46 27 -67 25 -26
33 -28 105 -28 270 2 618 79 806 179 30 15 30 15 75 -29 91 -88 150 -124 237
-143 22 -5 292 -9 600 -9 613 -1 603 -2 628 59 12 29 13 45 2 128 -16 120
-101 256 -212 336 l-29 21 87 82 c292 277 490 671 543 1081 3 25 7 61 10 80 5
40 6 389 1 465 -7 100 -18 241 -21 265 -2 14 -6 48 -10 75 -3 28 -8 65 -11 83
-2 18 -6 54 -9 80 -3 26 -8 54 -10 62 -3 8 -7 33 -11 55 -51 336 -205 843
-364 1198 -49 110 -57 139 -47 177 2 8 7 36 12 63 l7 47 367 0 c273 0 374 3
394 13 38 18 53 53 49 112 -4 46 -137 164 -234 209 -39 18 -115 45 -123 45 -3
0 -24 2 -48 5 -59 8 -128 14 -232 22 -49 4 -103 8 -120 9 -16 2 -42 3 -56 4
-19 1 -35 15 -64 56 -21 31 -62 77 -91 104 -52 48 -184 131 -208 131 -7 0 -16
4 -21 9 -38 33 -262 49 -369 25z m351 -496 c53 -53 45 -144 -16 -185 -126 -85
-257 82 -145 186 33 31 40 33 86 29 35 -4 57 -12 75 -30z m-156 -404 c24 -15
53 -39 64 -53 88 -114 166 -165 286 -185 70 -12 72 -13 89 -51 63 -140 172
-453 220 -635 60 -227 115 -509 135 -690 3 -30 8 -66 10 -80 4 -22 11 -112 21
-255 5 -80 6 -433 1 -442 -3 -4 -7 -35 -11 -68 -27 -255 -147 -562 -299 -765
-66 -87 -77 -100 -168 -190 -144 -143 -287 -234 -485 -309 -95 -36 -99 -39
-130 -89 -75 -125 -148 -182 -243 -188 -87 -5 -168 49 -238 156 -34 54 -50 66
-104 83 -13 4 -16 18 -13 74 3 79 13 211 19 244 2 13 6 47 10 74 35 297 166
668 320 906 108 167 134 169 150 9 4 -41 9 -84 11 -95 2 -11 6 -45 9 -75 27
-256 34 -293 52 -308 25 -18 45 -15 73 12 117 110 252 338 314 529 79 242 90
520 31 764 -27 112 -53 182 -115 308 -32 66 -63 137 -68 157 -9 34 -9 142 2
373 3 55 6 142 7 192 1 118 -12 142 -101 190 -123 66 -184 152 -174 247 8 85
52 144 134 183 43 20 141 9 191 -23z"/>
</g>
</svg>
